<?xml version="1.0" encoding="UTF-8"?>
<svg id="Calque_1" data-name="Calque 1" xmlns="http://www.w3.org/2000/svg" viewBox="0 0 325.69 329.36">
  <defs>
    <style>
      .cls-1 {
        letter-spacing: -.01em;
      }

      .cls-2 {
        letter-spacing: 0em;
      }

      .cls-3 {
        letter-spacing: -.01em;
      }

      .cls-4 {
        letter-spacing: 0em;
      }

      .cls-5, .cls-6 {
        fill: #662d91;
      }

      .cls-5, .cls-7 {
        font-family: CanaroW00-Bold, CanaroW00-Bold;
        font-size: 57.85px;
        font-weight: 700;
      }

      .cls-8 {
        letter-spacing: -.01em;
      }

      .cls-9 {
        fill: none;
        stroke: #662d91;
        stroke-miterlimit: 10;
        stroke-width: 6px;
      }

      .cls-10 {
        letter-spacing: -.08em;
      }

      .cls-11 {
        letter-spacing: 0em;
      }

      .cls-12 {
        letter-spacing: -.05em;
      }
    </style>
  </defs>
  <text class="cls-7" transform="translate(54.43 244.53)"><tspan class="cls-3" x="0" y="0">D</tspan><tspan class="cls-1" x="41.77" y="0">e</tspan><tspan class="cls-8" x="73.53" y="0">s</tspan><tspan class="cls-2" x="103.32" y="0">t</tspan><tspan x="130.28" y="0">i</tspan><tspan class="cls-12" x="146.24" y="0">n</tspan><tspan class="cls-10" x="179.39" y="0">y</tspan></text>
  <g>
    <path class="cls-6" d="m115.44,118.79c4.43-1.01,10.18-2.78,16.44-6.04,6.18-3.21,10.96-6.87,14.39-9.92.57,3.82,5.91,36.6,31.6,48.56,6.83,3.18,13.47,4.13,18.96,4.17,15.47-.83,25.9-12.39,29.83-28.09,1.84-7.37,2.55-14.9,2.55-22.51,0-28.08,0-56.17,0-84.25v-3.01h37.6c.07.7.17,1.27.17,1.84-.02,30.09.16,60.18-.15,90.27-.16,16.06-3.18,31.62-10.74,45.85-10.57,19.89-26.92,31.06-48.25,34.22-3.24.48-22.23,3.68-41.13-3.48-39.49-14.95-50.54-64.12-51.28-67.63Z"/>
    <path class="cls-6" d="m90.98,141.95h-32.3V17.52c27.12.4,54.24.8,81.36,1.2,9.44,1.16,33.39,5.48,51.45,25.12,24.08,26.19,27.76,68.84,8.37,106.48-2.94.53-10.69,1.5-19.14-2.39-6.32-2.91-10.14-7.2-11.96-9.57,14.44-22.01,15.34-48.99,2.39-68.2-10.9-16.17-27.88-21.29-33.5-22.73h-46.66v94.52Z"/>
    <path class="cls-6" d="m58.67,157.5v31.11h96.91c-5.3-3.21-12.27-8.2-18.84-15.55-5.06-5.66-8.47-11.13-10.77-15.55H58.67Z"/>
  </g>
  <g>
    <text class="cls-5" transform="translate(56.58 295.82)"><tspan class="cls-4" x="0" y="0">J</tspan><tspan class="cls-11" x="31.99" y="0">o</tspan><tspan class="cls-1" x="67.45" y="0">b</tspan><tspan x="102.92" y="0">s</tspan></text>
    <line class="cls-9" x1="195.07" y1="283.88" x2="269.11" y2="283.88"/>
  </g>
</svg>